<svg xmlns="http://www.w3.org/2000/svg" width="512" height="512" viewBox="1.3 1.3 512.9 512.9"><path d="M109.646 151.988C65.229 157.603 6.654 184.395 3.159 200.696c-6.28 29.282 43.782 126.324 76.182 147.674 42.527 28.024 89.203 20.068 137.159-23.38 37.451-33.931 45.549-33.931 83 0 47.335 42.885 93.95 51.24 135.819 24.342 35.994-23.124 88.501-128.726 76.031-152.915-6.363-12.343-53.906-34.361-90.488-41.906-33.581-6.926-58.627-4.609-124.876 11.556-39.352 9.602-37.293 9.527-66.103 2.381-64.464-15.99-93.024-19.9-120.237-16.46M118 221.582c-1.375.243-5.2.91-8.5 1.482-10.342 1.794-28.5 8.214-28.5 10.077 0 1.594 7.893 13.941 13.073 20.451 25.078 31.515 56.11 38.678 98.177 22.662 7.879-3 7.853-2.909 3.072-10.734-19.404-31.762-49.479-48.852-77.322-43.938m256.5.828c-21.04 4.876-39.975 20.034-53.926 43.171-4.663 7.734-4.679 7.682 3.176 10.673 47.009 17.898 81.733 6.367 107.235-35.608 4.77-7.852 4.785-7.967 1.265-9.605-17.029-7.927-43.631-11.902-57.75-8.631" fill="#070319" fill-rule="evenodd"/></svg>